<?xml version="1.0" encoding="UTF-8" standalone="no"?>
<!-- Created with Inkscape (http://www.inkscape.org/) -->

<svg
   xmlns:dc="http://purl.org/dc/elements/1.1/"
   xmlns:cc="http://creativecommons.org/ns#"
   xmlns:rdf="http://www.w3.org/1999/02/22-rdf-syntax-ns#"
   xmlns:svg="http://www.w3.org/2000/svg"
   xmlns="http://www.w3.org/2000/svg"
   xmlns:xlink="http://www.w3.org/1999/xlink"
   xmlns:sodipodi="http://sodipodi.sourceforge.net/DTD/sodipodi-0.dtd"
   xmlns:inkscape="http://www.inkscape.org/namespaces/inkscape"
   width="182.13332mm"
   height="184.49849mm"
   viewBox="0 0 645.35427 653.7348"
   id="svg2"
   version="1.1"
   inkscape:version="0.91 r13725"
   sodipodi:docname="drawing-4.svg">
  <defs
     id="defs4">
    <linearGradient
       id="linearGradient4331"
       inkscape:collect="always">
      <stop
         id="stop4333"
         offset="0"
         style="stop-color:#c00500;stop-opacity:1" />
      <stop
         id="stop4335"
         offset="1"
         style="stop-color:#ff6964;stop-opacity:1" />
    </linearGradient>
    <linearGradient
       inkscape:collect="always"
       id="linearGradient6535">
      <stop
         style="stop-color:#f3a03c;stop-opacity:1"
         offset="0"
         id="stop6537" />
      <stop
         style="stop-color:#fff374;stop-opacity:0.98431373"
         offset="1"
         id="stop6539" />
    </linearGradient>
    <linearGradient
       inkscape:collect="always"
       id="linearGradient5982">
      <stop
         style="stop-color:#f3a03c;stop-opacity:1"
         offset="0"
         id="stop5984" />
      <stop
         style="stop-color:#fff375;stop-opacity:1"
         offset="1"
         id="stop5986" />
    </linearGradient>
    <linearGradient
       id="linearGradient5673"
       inkscape:collect="always">
      <stop
         id="stop5675"
         offset="0"
         style="stop-color:#f3a03c;stop-opacity:1" />
      <stop
         id="stop5677"
         offset="1"
         style="stop-color:#d5c200;stop-opacity:0.48739496" />
    </linearGradient>
    <linearGradient
       inkscape:collect="always"
       id="linearGradient5655">
      <stop
         style="stop-color:#c00500;stop-opacity:0.773"
         offset="0"
         id="stop5657" />
      <stop
         style="stop-color:#ff6964;stop-opacity:0.83613445"
         offset="1"
         id="stop5659" />
    </linearGradient>
    <linearGradient
       inkscape:collect="always"
       xlink:href="#linearGradient5655"
       id="linearGradient5667"
       x1="256.64594"
       y1="595.71973"
       x2="322.69998"
       y2="595.71973"
       gradientUnits="userSpaceOnUse"
       gradientTransform="matrix(0.78955611,0,0,0.78955611,15.809167,158.71702)" />
    <linearGradient
       inkscape:collect="always"
       xlink:href="#linearGradient6535"
       id="linearGradient5669"
       x1="241.98122"
       y1="595.71973"
       x2="387.17108"
       y2="595.71973"
       gradientUnits="userSpaceOnUse"
       gradientTransform="matrix(0.78955611,0,0,0.78955611,15.809167,158.71702)" />
    <linearGradient
       inkscape:collect="always"
       xlink:href="#linearGradient5982"
       id="linearGradient5671"
       x1="309.90073"
       y1="595.71973"
       x2="425.05392"
       y2="595.71973"
       gradientUnits="userSpaceOnUse"
       spreadMethod="reflect"
       gradientTransform="matrix(0.78955611,0,0,0.78955611,15.809167,158.71702)" />
    <linearGradient
       inkscape:collect="always"
       xlink:href="#linearGradient5673"
       id="linearGradient5747"
       gradientUnits="userSpaceOnUse"
       spreadMethod="reflect"
       x1="309.90073"
       y1="595.71973"
       x2="425.05392"
       y2="595.71973" />
    <linearGradient
       inkscape:collect="always"
       xlink:href="#linearGradient5982"
       id="linearGradient5749"
       gradientUnits="userSpaceOnUse"
       x1="241.98122"
       y1="595.71973"
       x2="387.17108"
       y2="595.71973" />
    <linearGradient
       inkscape:collect="always"
       xlink:href="#linearGradient5655"
       id="linearGradient5751"
       gradientUnits="userSpaceOnUse"
       x1="256.64594"
       y1="595.71973"
       x2="322.69998"
       y2="595.71973" />
    <linearGradient
       inkscape:collect="always"
       xlink:href="#linearGradient5655"
       id="linearGradient6556"
       x1="-13.013057"
       y1="650.07202"
       x2="464.52014"
       y2="650.07202"
       gradientUnits="userSpaceOnUse" />
    <radialGradient
       inkscape:collect="always"
       xlink:href="#linearGradient5982"
       id="radialGradient6566"
       cx="211.08232"
       cy="637.29388"
       fx="211.08232"
       fy="637.29388"
       r="206.0522"
       gradientTransform="matrix(1,0,0,1.1791465,21.767544,-107.93126)"
       gradientUnits="userSpaceOnUse" />
    <linearGradient
       inkscape:collect="always"
       xlink:href="#linearGradient5655"
       id="linearGradient4220"
       gradientUnits="userSpaceOnUse"
       gradientTransform="matrix(0.10731483,0.46026823,-0.46026823,0.10731483,402.20618,212.04945)"
       x1="256.64594"
       y1="595.71973"
       x2="322.69998"
       y2="595.71973" />
    <linearGradient
       inkscape:collect="always"
       xlink:href="#linearGradient5982"
       id="linearGradient4222"
       gradientUnits="userSpaceOnUse"
       gradientTransform="matrix(0.10731483,0.46026823,-0.46026823,0.10731483,402.20618,212.04945)"
       spreadMethod="reflect"
       x1="309.90073"
       y1="595.71973"
       x2="425.05392"
       y2="595.71973" />
    <linearGradient
       inkscape:collect="always"
       xlink:href="#linearGradient6535"
       id="linearGradient4224"
       gradientUnits="userSpaceOnUse"
       gradientTransform="matrix(0.10731483,0.46026823,-0.46026823,0.10731483,402.20618,212.04945)"
       x1="241.98122"
       y1="595.71973"
       x2="387.17108"
       y2="595.71973" />
    <linearGradient
       inkscape:collect="always"
       xlink:href="#linearGradient5673"
       id="linearGradient4303"
       gradientUnits="userSpaceOnUse"
       spreadMethod="reflect"
       x1="309.90073"
       y1="595.71973"
       x2="425.05392"
       y2="595.71973" />
    <linearGradient
       inkscape:collect="always"
       xlink:href="#linearGradient4331"
       id="linearGradient4305"
       gradientUnits="userSpaceOnUse"
       x1="256.64594"
       y1="595.71973"
       x2="322.69998"
       y2="595.71973" />
    <linearGradient
       inkscape:collect="always"
       xlink:href="#linearGradient5982"
       id="linearGradient4307"
       gradientUnits="userSpaceOnUse"
       x1="241.98122"
       y1="595.71973"
       x2="387.17108"
       y2="595.71973" />
  </defs>
  <sodipodi:namedview
     id="base"
     pagecolor="#ffffff"
     bordercolor="#666666"
     borderopacity="1.0"
     inkscape:pageopacity="0.0"
     inkscape:pageshadow="2"
     inkscape:zoom="0.33987219"
     inkscape:cx="286.45915"
     inkscape:cy="224.50653"
     inkscape:document-units="px"
     inkscape:current-layer="g5734"
     showgrid="false"
     inkscape:snap-bbox="true"
     inkscape:bbox-nodes="true"
     inkscape:snap-bbox-edge-midpoints="true"
     inkscape:snap-bbox-midpoints="true"
     inkscape:bbox-paths="true"
     inkscape:snap-object-midpoints="true"
     inkscape:snap-global="false"
     inkscape:snap-nodes="true"
     inkscape:object-paths="true"
     inkscape:snap-intersection-paths="false"
     inkscape:snap-center="true"
     inkscape:window-width="1334"
     inkscape:window-height="747"
     inkscape:window-x="32"
     inkscape:window-y="21"
     inkscape:window-maximized="1"
     inkscape:showpageshadow="false"
     fit-margin-top="0"
     fit-margin-left="0"
     fit-margin-right="0"
     fit-margin-bottom="0"
     showborder="false" />
  <metadata
     id="metadata7">
    <rdf:RDF>
      <cc:Work
         rdf:about="">
        <dc:format>image/svg+xml</dc:format>
        <dc:type
           rdf:resource="http://purl.org/dc/dcmitype/StillImage" />
        <dc:title></dc:title>
      </cc:Work>
    </rdf:RDF>
  </metadata>
  <g
     inkscape:label="Layer 1"
     inkscape:groupmode="layer"
     id="layer1"
     transform="translate(-47.159563,-168.35929)">
    <g
       id="g5700"
       style="opacity:1">
      <g
         id="g5734"
         transform="matrix(1.3589348,-0.78541718,0.78541718,1.3589348,-430.23102,-205.48702)">
        <path
           inkscape:connector-curvature="0"
           id="path4214"
           d="m 204.49369,410.80801 a 27.37864,43.865312 76.875551 0 0 -45.25263,-17.44101 34.309341,54.969494 76.875551 0 0 -3.68354,0.73791 27.37864,43.865312 76.875551 0 0 -2.58548,0.68866 34.309341,54.969494 76.875551 0 0 -1.83786,0.50224 27.37864,43.865312 76.875551 0 0 -32.07987,35.43305 27.37864,43.865312 76.875551 0 0 1.34611,3.62857 34.309341,54.969494 76.875551 0 1 39.2225,-22.8162 34.309341,54.969494 76.875551 0 1 45.27301,3.06825 27.37864,43.865312 76.875551 0 0 -0.40223,-3.80142 z"
           style="color:#000000;clip-rule:nonzero;display:inline;overflow:visible;visibility:visible;opacity:1;isolation:auto;mix-blend-mode:normal;color-interpolation:sRGB;color-interpolation-filters:linearRGB;solid-color:#000000;solid-opacity:1;fill:url(#linearGradient4220);fill-opacity:1;fill-rule:nonzero;stroke:none;stroke-width:0.5;stroke-linecap:round;stroke-linejoin:bevel;stroke-miterlimit:4;stroke-dasharray:none;stroke-dashoffset:5;stroke-opacity:1;color-rendering:auto;image-rendering:auto;shape-rendering:auto;text-rendering:auto;enable-background:accumulate" />
        <path
           sodipodi:nodetypes="ssaaaaaaaaaas"
           inkscape:connector-curvature="0"
           id="path6548"
           d="M 85.630214,695.20857 C 78.218926,664.50962 -15.627614,639.90877 49.930723,584.29576 84.216446,555.21125 98.648032,549.06234 115.1531,524.44842 c 24.40054,-36.38843 4.15795,-112.26808 45.4802,-123.14257 29.0413,-7.64257 38.32158,46.07974 63.282,61.47958 22.94627,14.15716 57.14051,7.74819 76.52961,26.5906 14.19255,13.79235 9.56042,40.61811 21.85736,56.2161 29.21981,37.06375 108.95625,31.78037 116.08289,79.54427 7.40888,49.65535 -66.90646,78.72958 -89.76077,124.53007 -20.75295,41.58931 0.71886,114.81799 -41.22004,132.86867 C 247.15425,908.467 204.44513,799.01615 141.32498,788.62241 120.19546,785.14309 92.882995,814.85674 77.233271,800.35144 52.389191,777.32412 94.551213,732.161 85.630214,695.20857 Z"
           style="color:#000000;clip-rule:nonzero;display:inline;overflow:visible;visibility:visible;opacity:0.98400005;isolation:auto;mix-blend-mode:normal;color-interpolation:sRGB;color-interpolation-filters:linearRGB;solid-color:#000000;solid-opacity:1;fill:url(#radialGradient6566);fill-opacity:1;fill-rule:nonzero;stroke:none;stroke-width:0.5;stroke-linecap:round;stroke-linejoin:bevel;stroke-miterlimit:4;stroke-dasharray:none;stroke-dashoffset:5;stroke-opacity:1;color-rendering:auto;image-rendering:auto;shape-rendering:auto;text-rendering:auto;enable-background:accumulate" />
        <path
           style="color:#000000;clip-rule:nonzero;display:inline;overflow:visible;visibility:visible;opacity:0.98400005;isolation:auto;mix-blend-mode:normal;color-interpolation:sRGB;color-interpolation-filters:linearRGB;solid-color:#000000;solid-opacity:1;fill:url(#linearGradient6556);fill-opacity:1;fill-rule:nonzero;stroke:none;stroke-width:0.5;stroke-linecap:round;stroke-linejoin:bevel;stroke-miterlimit:4;stroke-dasharray:none;stroke-dashoffset:5;stroke-opacity:1;color-rendering:auto;image-rendering:auto;shape-rendering:auto;text-rendering:auto;enable-background:accumulate"
           d="m 178.22275,504.05663 c 30.16025,-8.06651 56.17272,-102.57446 109.15362,-38.08058 27.70798,33.72902 33.41524,48.05406 57.12655,64.0686 35.05401,23.67537 109.64248,1.81026 119.4046,42.96857 6.86083,28.9261 -45.8414,39.34727 -61.41646,64.66934 -14.31822,23.2787 -8.77117,57.39159 -27.59411,77.20588 -13.77811,14.50377 -39.90021,10.42697 -55.40338,23.07004 -36.83844,30.04234 -33.3465,109.79166 -80.17989,117.93092 -48.688,8.46159 -75.54652,-65.35937 -119.83222,-87.28873 C 79.267652,748.68761 7.2444468,771.72825 -9.5186742,730.1028 -33.600844,670.30301 74.270858,625.23257 85.753153,561.79658 89.59687,540.56132 61.127774,513.82956 75.633272,497.8514 98.66089,472.48592 141.91876,513.76632 178.22275,504.05663 Z"
           id="rect6545"
           inkscape:connector-curvature="0"
           sodipodi:nodetypes="ssaaaaaaaaaas" />
        <path
           style="color:#000000;clip-rule:nonzero;display:inline;overflow:visible;visibility:visible;opacity:1;isolation:auto;mix-blend-mode:normal;color-interpolation:sRGB;color-interpolation-filters:linearRGB;solid-color:#000000;solid-opacity:1;fill:url(#linearGradient5667);fill-opacity:1;fill-rule:nonzero;stroke:none;stroke-width:0.5;stroke-linecap:round;stroke-linejoin:bevel;stroke-miterlimit:4;stroke-dasharray:none;stroke-dashoffset:5;stroke-opacity:1;color-rendering:auto;image-rendering:auto;shape-rendering:auto;text-rendering:auto;enable-background:accumulate"
           d="m 264.18468,555.7887 a 45.739241,73.282166 0 0 0 -45.5424,67.00901 57.317791,91.83301 0 0 0 -0.19676,6.27296 45.739241,73.282166 0 0 0 0.1396,4.46775 57.317791,91.83301 0 0 0 0.11993,3.18069 45.739241,73.282166 0 0 0 45.47963,65.63455 45.739241,73.282166 0 0 0 6.41423,-0.81363 57.317791,91.83301 0 0 1 -22.24276,-72.46936 57.317791,91.83301 0 0 1 22.16594,-72.49435 45.739241,73.282166 0 0 0 -6.33741,-0.78762 z"
           id="path5646"
           inkscape:connector-curvature="0" />
        <g
           style="opacity:1;fill:#ffffff;fill-opacity:0.98431373"
           id="g6484"
           transform="matrix(-0.01348177,0.16530312,-0.16214592,-0.00877182,1075.6348,1077.7994)">
          <path
             style="opacity:1;fill:#ffffff;fill-opacity:0.98431373"
             d="m -2235.7267,5435.0163 c -18.9298,29.0068 -57.1946,31.2291 -108.0399,6.2744 -18.2729,-8.9681 -35.9463,-20.1048 -54.0757,-34.0745 -4.8712,-3.7535 -9.4082,-6.8742 -10.0822,-6.9349 -0.6739,-0.061 -2.7794,1.4935 -4.6789,3.4536 -49.0086,50.5743 -96.7701,76.7144 -130.766,71.5686 -8.4682,-1.2818 -19.5031,-6.2802 -25.6283,-11.609 -15.4472,-13.4384 -25.6598,-39.4448 -28.6498,-72.9569 -1.6152,-18.104 -0.3497,-52.8179 2.5899,-71.0442 1.8345,-11.3738 2.5439,-10.6058 -13.7037,-14.8365 -58.6397,-15.2691 -103.3774,-42.8994 -116.6572,-72.0483 -6.8956,-15.1355 -6.3746,-29.3357 1.6808,-45.8116 14.0104,-28.6555 48.2996,-54.8649 101.7387,-77.765 10.7431,-4.6037 13.2672,-6.0276 13.2169,-7.4559 -0.034,-0.971 -1.4997,-7.0923 -3.2566,-13.6029 -14.8953,-55.1973 -14.9314,-103.6239 -0.097,-129.8923 8.1477,-14.4275 15.0332,-20.3407 29.418,-25.2641 8.225,-2.8151 11.2487,-3.3126 19.9251,-3.2782 18.5182,0.073 37.3881,5.3796 61.8051,17.3796 19.4303,9.5492 41.3769,23.5392 57.659,36.755 2.4872,2.0188 5.186,3.769 5.9972,3.8893 0.928,0.1376 4.5099,-2.8351 9.66,-8.0173 31.3274,-31.5227 60.1165,-51.7421 87.7787,-61.6495 35.1928,-12.6048 60.9149,-4.9036 77.3765,23.1664 14.7377,25.1303 19.7578,70.7828 13.2858,120.8207 -1.003,7.7539 -1.6103,14.8231 -1.3496,15.7092 0.4041,1.3743 1.8032,1.9552 9.5222,3.9533 41.5709,10.7609 78.2934,27.6126 99.3599,45.5955 36.7843,31.3998 35.6907,68.0181 -3.1095,104.1301 -18.5837,17.2961 -50.1158,36.0211 -82.2737,48.8571 -4.6879,1.8712 -8.776,3.9171 -9.0849,4.5465 -0.3089,0.6293 0.7125,5.722 2.2698,11.317 16.8652,60.5958 16.1979,111.1987 -1.831,138.8248 z m -15.4445,-25.0486 c 7.6597,-23.0567 5.4694,-62.1572 -5.7959,-103.4676 -2.6068,-9.5593 -3.52,-12.1038 -4.5203,-12.5947 -0.3315,-0.1626 -6.589,1.4145 -13.9057,3.5048 -17.0168,4.8616 -31.7863,8.4699 -48.2409,11.7854 -21.1463,4.261 -17.9683,2.1967 -29.1251,18.9192 -10.4251,15.6255 -20.5622,29.5671 -30.4795,41.918 -7.6677,9.5493 -8.0179,10.239 -6.1898,12.1861 2.834,3.0183 22.2783,16.9517 33.6405,24.1061 13.9328,8.7729 40.7794,21.4162 51.1406,24.0844 20.7712,5.349 36.0916,3.8589 43.9352,-4.2733 5.6799,-5.8889 6.7004,-7.6183 9.5409,-16.1684 z m 111.3968,-232.4377 c 0.9761,-24.5535 -41.1328,-53.4989 -101.4107,-69.709 -6.002,-1.614 -11.6735,-3.0569 -12.6033,-3.2062 -2.1344,-0.3429 -2.4668,0.5847 -8.3946,23.4215 -3.8709,14.9128 -6.6387,23.9148 -16.1702,52.5926 -1.1562,3.4788 -0.9511,4.1062 5.6368,17.2448 7.8819,15.719 16.7428,35.4999 22.6886,50.6499 2.2756,5.7982 4.7048,10.8162 5.3983,11.1512 0.6934,0.3354 5.5163,-1.1894 10.7173,-3.3876 39.261,-16.5944 67.8685,-35.5681 84.1297,-55.7986 5.0543,-6.288 9.7761,-17.1197 10.0081,-22.9586 z m -135.408,75.3278 c -7.9856,-19.5831 -14.5922,-33.3209 -16.2317,-33.7522 -1.2982,-0.3416 -2.8878,2.5785 -16.815,30.8874 -8.4597,17.1957 -15.266,31.6024 -15.125,32.015 0.4665,1.3656 3.9342,0.8688 18.4384,-2.6411 21.3482,-5.1662 34.9038,-9.6124 35.0741,-11.5042 0.077,-0.8594 -2.326,-7.6117 -5.3408,-15.0049 z m -40.0073,-46.5756 c 9.3365,-22.2905 9.3578,-18.3849 -0.1877,-34.4707 -14.9175,-25.1385 -29.7339,-47.0094 -46.9062,-69.2395 l -9.4563,-12.2416 -10.6139,-0.1121 c -32.327,-0.3415 -98.1103,5.175 -103.9665,8.7184 -4.7674,2.8848 -38.2668,68.8445 -48.2481,94.9999 -3.4434,9.0232 -3.8117,7.8866 9.7671,30.139 12.4299,20.3695 24.849,38.6079 39.3373,57.7694 10.6129,14.0363 12.0891,15.6613 14.4363,15.892 4.5584,0.4482 35.6587,-0.083 47.972,-0.8197 29.2833,-1.7515 62.864,-5.8694 65.373,-8.0166 4.2034,-3.597 32.1676,-57.9676 42.493,-82.6185 z m -60.5427,18.7129 c -7.5291,11.1184 -15.7833,17.3512 -29.0269,21.9184 -15.0178,5.179 -28.1278,4.3865 -42.2742,-2.5555 -8.8142,-4.3254 -14.0081,-8.6303 -20.4703,-16.9665 -8.2103,-10.5913 -12.3764,-25.8067 -10.7697,-39.3338 2.6041,-21.9259 16.8086,-39.6455 37.4623,-46.7329 13.9862,-4.7994 26.6317,-4.2568 40.5213,1.7387 15.4363,6.6629 24.8066,16.7988 30.4191,32.9043 2.7091,7.7742 3.311,11.124 3.2174,17.9065 -0.1657,11.9961 -3.2214,22.4707 -9.079,31.1208 z m -3.5846,94.0988 c -0.8169,-0.4008 -7.8298,-0.07 -15.5845,0.7348 -7.7547,0.8049 -20.8586,1.7849 -29.1198,2.1777 -8.2613,0.3928 -16.9619,0.8191 -19.3348,0.9473 -7.2421,0.3912 -6.9368,1.9682 2.2365,11.5529 12.0794,12.621 26.748,26.6785 28.9827,27.7751 1.217,0.5973 2.3986,0.5071 3.0495,-0.2329 6.7576,-7.6818 27.781,-35.5511 29.9238,-39.6679 1.0376,-1.9932 1.0036,-2.7192 -0.1534,-3.287 z m 88.9773,-182.6648 c 4.9529,-17.0389 9.2116,-34.9542 8.6794,-36.5121 -0.5048,-1.4778 -14.8193,-3.8836 -36.2386,-6.0906 -15.3488,-1.5814 -17.4223,-1.5967 -18.1404,-0.1333 -0.2907,0.5924 3.9006,7.2803 9.314,14.862 5.4134,7.5817 13.2218,19.0826 17.3521,25.5574 4.1301,6.475 8.3305,13.052 9.3342,14.6157 2.0263,3.1569 4.2769,3.8539 5.3543,1.6584 0.3883,-0.7914 2.3436,-7.0723 4.345,-13.9575 z m -138.9252,245.4097 c -0.3434,-0.6846 -3.5419,-3.9086 -7.1076,-7.1644 -8.8752,-8.1038 -27.492,-27.4863 -38.9004,-40.5005 -11.0868,-12.6474 -7.3327,-11.2395 -35.0746,-13.1542 -10.5143,-0.7257 -27.6616,-2.4846 -38.105,-3.9087 -17.2848,-2.357 -19.0936,-2.4277 -20.1651,-0.7893 -0.6474,0.99 -1.7829,7.0385 -2.5236,13.4411 -5.9401,51.3537 -0.7469,91.2071 14.4018,110.5216 6.3364,8.0789 11.9129,10.7469 22.4293,10.7311 6.0785,-0.01 10.0169,-0.8362 19.5676,-4.1092 23.3988,-8.0188 50.7433,-27.0913 78.6646,-54.8676 6.331,-6.2981 7.7241,-8.3838 6.813,-10.1999 z m 155.565,-325.421 c 4.2744,-37.166 2.5018,-67.0395 -5.3316,-89.8513 -4.3872,-12.7761 -8.5125,-19.5825 -14.9379,-24.6466 -17.3072,-13.6404 -57.2439,2.1976 -99.0006,39.2613 -10.8929,9.6687 -23.2651,22.2592 -23.4054,23.8185 -0.062,0.6941 2.9804,4.166 6.7621,7.7154 11.032,10.3543 25.307,25.0301 35.2456,36.2354 5.0749,5.7218 10.4597,11.7432 11.966,13.3809 3.1522,3.427 0.3787,2.942 27.4638,4.8025 13.2391,0.9094 32.6036,3.1655 56.8573,6.6242 1.9626,0.2799 2.6815,-2.5653 4.3807,-17.3403 z m -240.1409,229.5469 c -6.0512,-7.9911 -20.5116,-29.3091 -27.0493,-39.8769 -3.0696,-4.9617 -6.1647,-9.3077 -6.8779,-9.6578 -1.8154,-0.8909 -3.1965,2.249 -7.3392,16.6855 -5.446,18.9778 -8.7619,33.1014 -8.1906,34.8866 0.4477,1.3987 2.7334,1.9599 15.5762,3.8246 18.4418,2.6776 36.4299,4.3148 37.8189,3.442 1.6002,-1.0056 0.6556,-3.2374 -3.9381,-9.304 z m 117.1271,-224.1957 c -0.72,-1.5243 -20.5167,-21.883 -28.7678,-29.5845 -7.6696,-7.1588 -8.6749,-7.5944 -11.2528,-4.8761 -5.566,5.8692 -26.7611,34.1131 -28.9562,38.5862 -0.9498,1.9356 -0.944,2.8227 0.022,3.2965 0.7265,0.3565 7.2146,0.049 14.4179,-0.684 13.5242,-1.3757 29.9849,-2.4757 45.3049,-3.0275 8.5705,-0.3087 10.4775,-1.0752 9.2326,-3.7106 z m -188.7514,207.9914 c 3.1922,-13.5762 10.1517,-37.2878 15.452,-52.6466 2.0853,-6.0425 3.9093,-11.6839 4.0533,-12.5365 0.1441,-0.8526 -1.2199,-4.2966 -3.0311,-7.6533 -5.8145,-10.7759 -17.4722,-36.1318 -24.002,-52.2048 -3.4899,-8.5903 -6.8986,-15.8904 -7.5748,-16.2222 -2.4767,-1.2155 -35.862,14.1356 -52.4516,24.118 -17.4171,10.4804 -32.6308,22.9563 -41.3673,33.9231 -6.6519,8.3499 -11.0227,18.8462 -10.7218,25.7469 0.2762,6.3312 1.0447,8.4958 5.4252,15.2781 13.1994,20.4374 49.1144,40.0306 97.4415,53.1588 10.3485,2.8112 12.8144,3.0869 13.5838,1.5192 0.2725,-0.5553 1.7093,-6.1716 3.1928,-12.4807 z m 130.0715,-263.6138 c -2.6002,-2.7694 -21.4656,-16.3921 -32.6525,-23.5784 -14.9991,-9.6353 -42.6417,-22.4916 -54.5111,-25.3526 -15.4156,-3.7158 -28.537,-3.4848 -36.2152,0.6376 -17.7833,9.548 -24.127,44.2051 -16.5077,90.1866 3.03,18.2855 9.7835,45.3593 11.5285,46.2156 0.4041,0.1984 5.9144,-1.1494 12.245,-2.995 16.37,-4.7724 37.2948,-9.8463 54.0685,-13.1104 7.9449,-1.5461 14.9034,-3.3101 15.4633,-3.92 0.5599,-0.6098 3.7743,-5.315 7.1432,-10.4558 8.6171,-13.1492 23.7362,-34.0596 32.1713,-44.4944 8.9432,-11.0631 9.0422,-11.2422 7.2667,-13.1332 z m -67.0375,99.4243 c -2.666,-1.3083 -51.5607,11.8602 -52.7066,14.195 -1.1253,2.2934 18.6776,48.164 21.3617,49.4812 1.3402,0.6577 2.3237,-1.1015 16.5827,-29.6621 8.3368,-16.6986 15.3342,-31.0528 15.5499,-31.8982 0.2155,-0.8454 -0.1389,-1.7975 -0.7877,-2.1159 z"
             id="path6486"
             inkscape:connector-curvature="0" />
        </g>
        <g
           id="ring1"
           style="image-rendering:auto"
           inkscape:label="#g4285">
          <path
             inkscape:connector-curvature="0"
             id="path4146"
             d="m 294.09624,537.23826 a 57.317791,91.83301 0 0 0 -2.37887,0.1904 l -24.17566,0 a 57.317791,91.83301 0 0 1 53.96074,91.64201 57.317791,91.83301 0 0 1 -55.24153,91.66695 l 24.89991,0 a 57.317791,91.83301 0 0 0 2.93541,0.16648 57.317791,91.83301 0 0 0 2.07812,-0.16648 l 1.37635,0 0,-0.11028 a 57.317791,91.83301 0 0 0 53.86237,-91.55667 57.317791,91.83301 0 0 0 -53.63656,-91.62431 l 0,-0.0177 -0.32232,0 a 57.317791,91.83301 0 0 0 -3.35796,-0.1904 z m -33.60307,0.1904 0,0.10509 a 57.317791,91.83301 0 0 1 1.31639,-0.10509 l -1.31639,0 z m 0.24266,183.27983 0,0.0291 0.51344,0 a 57.317791,91.83301 0 0 1 -0.51344,-0.0291 z"
             style="color:#000000;clip-rule:nonzero;display:inline;overflow:visible;visibility:visible;opacity:1;isolation:auto;mix-blend-mode:normal;color-interpolation:sRGB;color-interpolation-filters:linearRGB;solid-color:#000000;solid-opacity:1;fill:url(#linearGradient5671);fill-opacity:1;fill-rule:nonzero;stroke:none;stroke-width:0.5;stroke-linecap:round;stroke-linejoin:bevel;stroke-miterlimit:4;stroke-dasharray:none;stroke-dashoffset:5;stroke-opacity:1;color-rendering:auto;image-rendering:auto;shape-rendering:auto;text-rendering:auto;enable-background:accumulate" />
          <path
             inkscape:connector-curvature="0"
             id="ellipse4148"
             d="m 264.18468,537.23826 a 57.317791,91.83301 0 0 0 -57.31777,91.83241 57.317791,91.83301 0 0 0 57.31777,91.83343 57.317791,91.83301 0 0 0 57.31777,-91.83343 57.317791,91.83301 0 0 0 -57.31777,-91.83241 z m 0,18.55044 a 45.739241,73.282166 0 0 1 45.73916,73.28197 45.739241,73.282166 0 0 1 -45.73916,73.28299 45.739241,73.282166 0 0 1 -45.73916,-73.28299 45.739241,73.282166 0 0 1 45.73916,-73.28197 z"
             style="color:#000000;clip-rule:nonzero;display:inline;overflow:visible;visibility:visible;opacity:1;isolation:auto;mix-blend-mode:normal;color-interpolation:sRGB;color-interpolation-filters:linearRGB;solid-color:#000000;solid-opacity:1;fill:url(#linearGradient5669);fill-opacity:1;fill-rule:nonzero;stroke:none;stroke-width:0.5;stroke-linecap:round;stroke-linejoin:bevel;stroke-miterlimit:4;stroke-dasharray:none;stroke-dashoffset:5;stroke-opacity:1;color-rendering:auto;image-rendering:auto;shape-rendering:auto;text-rendering:auto;enable-background:accumulate" />
        </g>
        <text
           xml:space="preserve"
           style="font-style:normal;font-variant:normal;font-weight:500;font-stretch:normal;font-size:21.0719471px;line-height:80.00000119%;font-family:KacstLetter;-inkscape-font-specification:'KacstLetter, Medium';text-align:start;letter-spacing:0px;word-spacing:0px;writing-mode:lr-tb;text-anchor:start;opacity:1;fill:#e04b31;fill-opacity:0.99607843;stroke:none;stroke-width:1px;stroke-linecap:butt;stroke-linejoin:miter;stroke-opacity:1"
           x="333.85306"
           y="289.58469"
           id="text-SAPHY"
           sodipodi:linespacing="80.000001%"
           transform="matrix(0.86579473,0.50039932,-0.50039932,0.86579473,0,0)"
           inkscape:label="#text4172"><tspan
             sodipodi:role="line"
             id="tspan4174"
             x="333.85306"
             y="289.58469"
             style="font-style:normal;font-variant:normal;font-weight:bold;font-stretch:normal;font-size:21.07194519px;line-height:80.00000119%;font-family:'Dancing Script';-inkscape-font-specification:'Dancing Script, Bold';text-align:start;writing-mode:lr-tb;text-anchor:start;fill:#e04b31;fill-opacity:0.99607843">Saphi</tspan></text>
        <g
           id="ring2"
           inkscape:label="#g4289">
          <path
             style="color:#000000;clip-rule:nonzero;display:inline;overflow:visible;visibility:visible;opacity:1;isolation:auto;mix-blend-mode:normal;color-interpolation:sRGB;color-interpolation-filters:linearRGB;solid-color:#000000;solid-opacity:1;fill:url(#linearGradient4222);fill-opacity:1;fill-rule:nonzero;stroke:none;stroke-width:0.5;stroke-linecap:round;stroke-linejoin:bevel;stroke-miterlimit:4;stroke-dasharray:none;stroke-dashoffset:5;stroke-opacity:1;color-rendering:auto;image-rendering:auto;shape-rendering:auto;text-rendering:auto;enable-background:accumulate"
             d="m 219.3731,425.72348 a 34.309341,54.969494 76.875551 0 0 -0.43432,-1.36086 l -3.28591,-14.0931 a 34.309341,54.969494 76.875551 0 1 -46.08807,43.91197 34.309341,54.969494 76.875551 0 1 -60.94515,-19.74363 l 3.38434,14.51529 a 34.309341,54.969494 76.875551 0 0 0.30188,1.73382 34.309341,54.969494 76.875551 0 0 0.37955,1.1888 l 0.18707,0.80233 0.0643,-0.015 a 34.309341,54.969494 76.875551 0 0 60.69342,18.95464 34.309341,54.969494 76.875551 0 0 46.12182,-43.72059 l 0.0103,-0.002 -0.0438,-0.18789 a 34.309341,54.969494 76.875551 0 0 -0.34542,-1.9834 z m -4.67825,-19.56288 -0.0613,0.0143 a 34.309341,54.969494 76.875551 0 1 0.24018,0.75311 l -0.17892,-0.76739 z m -106.80918,25.05248 -0.017,0.004 0.0698,0.29931 a 34.309341,54.969494 76.875551 0 1 -0.0528,-0.30326 z"
             id="path4216"
             inkscape:connector-curvature="0" />
          <path
             style="color:#000000;clip-rule:nonzero;display:inline;overflow:visible;visibility:visible;opacity:1;isolation:auto;mix-blend-mode:normal;color-interpolation:sRGB;color-interpolation-filters:linearRGB;solid-color:#000000;solid-opacity:1;fill:url(#linearGradient4224);fill-opacity:1;fill-rule:nonzero;stroke:none;stroke-width:0.5;stroke-linecap:round;stroke-linejoin:bevel;stroke-miterlimit:4;stroke-dasharray:none;stroke-dashoffset:5;stroke-opacity:1;color-rendering:auto;image-rendering:auto;shape-rendering:auto;text-rendering:auto;enable-background:accumulate"
             d="m 215.30759,408.28667 a 34.309341,54.969494 76.875551 0 0 -61.32382,-20.93146 34.309341,54.969494 76.875551 0 0 -45.74338,45.89495 34.309341,54.969494 76.875551 0 0 61.32441,20.93133 34.309341,54.969494 76.875551 0 0 45.74279,-45.89482 z m -10.8139,2.52134 a 27.37864,43.865312 76.875551 0 1 -36.50263,36.62377 27.37864,43.865312 76.875551 0 1 -48.93676,-16.70296 27.37864,43.865312 76.875551 0 1 36.50322,-36.62391 27.37864,43.865312 76.875551 0 1 48.93617,16.7031 z"
             id="path4218"
             inkscape:connector-curvature="0" />
        </g>
      </g>
      <g
         id="g5739"
         transform="matrix(0.13408317,0.27323233,-0.27323233,0.13408317,237.90039,481.81338)">
        <g
           id="ring3"
           transform="matrix(3.0230807,0,0,3.0230807,-496.35887,-1628.1703)"
           inkscape:label="#g5962">
          <path
             style="color:#000000;clip-rule:nonzero;display:inline;overflow:visible;visibility:visible;opacity:1;isolation:auto;mix-blend-mode:normal;color-interpolation:sRGB;color-interpolation-filters:linearRGB;solid-color:#000000;solid-opacity:1;fill:url(#linearGradient5747);fill-opacity:1;fill-rule:nonzero;stroke:none;stroke-width:0.5;stroke-linecap:round;stroke-linejoin:bevel;stroke-miterlimit:4;stroke-dasharray:none;stroke-dashoffset:5;stroke-opacity:1;color-rendering:auto;image-rendering:auto;shape-rendering:auto;text-rendering:auto;enable-background:accumulate"
             d="m 352.46016,479.41019 a 72.594956,116.30967 0 0 0 -3.01292,0.24115 l -30.6193,0 a 72.594956,116.30967 0 0 1 68.34313,116.06775 72.594956,116.30967 0 0 1 -69.9653,116.09936 l 31.5366,0 a 72.594956,116.30967 0 0 0 3.71779,0.21085 72.594956,116.30967 0 0 0 2.63201,-0.21085 l 1.7432,0 0,-0.13968 A 72.594956,116.30967 0 0 0 425.05391,595.71909 72.594956,116.30967 0 0 0 357.12136,479.67375 l 0,-0.0224 -0.40822,0 a 72.594956,116.30967 0 0 0 -4.25298,-0.24115 z m -42.55944,0.24115 0,0.1331 a 72.594956,116.30967 0 0 1 1.66725,-0.1331 l -1.66725,0 z m 0.30734,232.13021 0,0.0369 0.65029,0 a 72.594956,116.30967 0 0 1 -0.65029,-0.0369 z"
             id="path5741"
             inkscape:connector-curvature="0" />
          <path
             style="color:#000000;clip-rule:nonzero;display:inline;overflow:visible;visibility:visible;opacity:1;isolation:auto;mix-blend-mode:normal;color-interpolation:sRGB;color-interpolation-filters:linearRGB;solid-color:#000000;solid-opacity:1;fill:url(#linearGradient5751);fill-opacity:1;fill-rule:nonzero;stroke:none;stroke-width:0.5;stroke-linecap:round;stroke-linejoin:bevel;stroke-miterlimit:4;stroke-dasharray:none;stroke-dashoffset:5;stroke-opacity:1;color-rendering:auto;image-rendering:auto;shape-rendering:auto;text-rendering:auto;enable-background:accumulate"
             d="m 314.57614,502.90496 a 57.930324,92.814387 0 0 0 -57.68102,84.86921 72.594956,116.30967 0 0 0 -0.2492,7.94492 57.930324,92.814387 0 0 0 0.17681,5.65856 72.594956,116.30967 0 0 0 0.15189,4.02846 57.930324,92.814387 0 0 0 57.60152,83.12842 57.930324,92.814387 0 0 0 8.12385,-1.0305 72.594956,116.30967 0 0 1 -28.17123,-91.78494 72.594956,116.30967 0 0 1 28.07393,-91.81658 57.930324,92.814387 0 0 0 -8.02655,-0.99755 z"
             id="path5745"
             inkscape:connector-curvature="0" />
          <path
             style="opacity:1;fill:#ffffff"
             d="m 372.63251,585.40103 c -3.47825,5.54352 -8.42683,9.63154 -14.16756,11.70382 -3.86824,1.39635 -7.33516,1.83749 -11.0775,1.40949 -1.94317,-0.22223 -2.22338,-0.0167 -1.40448,1.03006 0.76315,0.97552 2.32395,3.65278 3.15598,5.4135 4.24822,8.98995 4.38332,18.35221 0.39592,27.43773 -2.77267,6.31768 -7.43802,11.08788 -13.55374,13.85829 -5.86305,2.65597 -11.72706,2.94404 -18.08486,0.88841 -2.50457,-0.8098 -6.80476,-3.06086 -8.70765,-4.5583 -5.0939,-4.00856 -8.99855,-9.77463 -11.22286,-16.57302 -0.36942,-1.1291 -0.79308,-2.59218 -0.94146,-3.25132 -0.81918,-3.63849 -0.98765,-7.91015 -0.46395,-11.76167 1.60399,-11.7959 7.94825,-20.2904 17.65055,-23.63275 1.52218,-0.52436 3.13561,-0.93077 4.29628,-1.08218 2.25431,-0.29409 5.39577,-0.34369 5.63224,-0.0889 0.19584,0.211 0.23144,0.008 -1.4395,8.21903 -0.68506,3.36659 -1.33761,6.30861 -1.45011,6.53785 -0.16168,0.32945 -0.61008,0.54882 -2.13986,1.04682 -1.64883,0.53678 -2.14034,0.78809 -3.3204,1.69778 -3.8853,2.99511 -5.54165,6.50403 -5.45751,11.56162 0.0792,4.76438 1.8548,9.12018 4.97686,12.20916 3.01013,2.97823 7.04539,4.74108 10.82306,4.72814 1.47982,-0.005 2.09864,-0.11722 3.77715,-0.68454 2.20523,-0.74535 3.39822,-1.47582 5.01013,-3.06773 0.93142,-0.91985 1.07285,-1.14019 2.1998,-3.42707 1.04386,-2.11816 1.23596,-2.62331 1.44128,-3.78889 0.59923,-3.40184 -0.0772,-7.05093 -1.95083,-10.52326 -1.09578,-2.0308 -0.6738,-2.53303 -4.75061,5.6543 -3.92992,7.89234 -3.75918,7.63843 -4.77316,7.09822 -0.86133,-0.45889 -6.60472,-7.62186 -6.8767,-8.57641 -0.13207,-0.4636 -0.008,-0.73749 5.50585,-12.15679 l 5.64096,-11.68247 -1.25382,-1.38074 c -3.08357,-3.39567 -5.37909,-7.20003 -7.05034,-11.68461 -1.68881,-4.53163 -2.29051,-8.89864 -1.8904,-13.7201 0.53182,-6.40882 3.26398,-13.97243 6.71784,-18.5974 3.99748,-5.35294 10.71414,-9.34727 17.19499,-10.22564 5.02195,-0.68067 9.71896,0.22119 15.23808,2.92581 7.75204,3.79881 12.73388,9.8365 15.5862,18.88936 1.52897,4.8527 1.93481,9.92465 1.21024,15.12443 -0.39916,2.86442 -0.90984,4.85241 -2.02532,7.88419 -0.92604,2.51686 -1.31915,3.34225 -2.45079,5.14582 z m -9.34711,-14.04022 c 0.57553,-3.097 0.30264,-6.26714 -0.82584,-9.59368 -0.94946,-2.79881 -1.87167,-4.35683 -3.6766,-6.21135 -3.21327,-3.30158 -6.8839,-4.88039 -11.14701,-4.79457 -1.14919,0.0232 -1.98674,0.19641 -3.61782,0.74847 -1.89419,0.64109 -2.28486,0.84585 -3.6329,1.90398 -1.88022,1.47588 -2.78324,2.59456 -3.84708,4.76583 -2.28379,4.66115 -2.26942,10.76011 0.0358,15.22281 2.19905,4.25713 6.0762,7.63832 9.98565,8.70833 5.26361,1.44065 10.61917,-0.43572 14.13465,-4.95222 0.72041,-0.92555 2.37278,-4.62272 2.59111,-5.7976 z m -60.60322,94.69616 c -0.10178,-0.0503 -0.44361,-0.49227 -0.75969,-0.98205 l -0.57469,-0.89051 3.50344,-7.23649 3.50341,-7.23648 0.80463,0.39484 c 1.40407,0.68901 1.66567,-0.17397 -2.55342,8.4236 -2.94262,5.99641 -3.77808,7.59915 -3.92368,7.52709 z m -14.60901,13.71768 c -0.16947,0.0165 -1.19531,-2.27871 -1.16567,-2.60802 0.0462,-0.51372 15.55351,-31.96943 15.77098,-31.99067 0.246,-0.024 1.39196,1.08621 1.47446,1.4285 0.0649,0.26917 -15.87473,33.15024 -16.07977,33.17019 z m 2.17198,-20.51013 -3.47717,6.8927 -0.54942,-1.12937 c -0.30219,-0.62114 -0.56326,-1.22511 -0.58016,-1.34215 -0.0511,-0.35335 12.19766,-25.20615 12.37899,-25.11716 0.26157,0.12836 1.30861,2.07557 1.28099,2.38231 -0.0268,0.2975 -3.06124,6.43587 -9.05323,18.31367 z"
             id="path5922"
             inkscape:connector-curvature="0" />
          <path
             style="color:#000000;clip-rule:nonzero;display:inline;overflow:visible;visibility:visible;opacity:1;isolation:auto;mix-blend-mode:normal;color-interpolation:sRGB;color-interpolation-filters:linearRGB;solid-color:#000000;solid-opacity:1;fill:url(#linearGradient5749);fill-opacity:1;fill-rule:nonzero;stroke:none;stroke-width:0.5;stroke-linecap:round;stroke-linejoin:bevel;stroke-miterlimit:4;stroke-dasharray:none;stroke-dashoffset:5;stroke-opacity:1;color-rendering:auto;image-rendering:auto;shape-rendering:auto;text-rendering:auto;enable-background:accumulate"
             d="m 314.57614,479.41019 a 72.594956,116.30967 0 0 0 -72.59493,116.3089 72.594956,116.30967 0 0 0 72.59493,116.31021 72.594956,116.30967 0 0 0 72.59493,-116.31021 72.594956,116.30967 0 0 0 -72.59493,-116.3089 z m 0,23.49477 a 57.930324,92.814387 0 0 1 57.93022,92.81413 57.930324,92.814387 0 0 1 -57.93022,92.81544 57.930324,92.814387 0 0 1 -57.93022,-92.81544 57.930324,92.814387 0 0 1 57.93022,-92.81413 z"
             id="path5743"
             inkscape:connector-curvature="0" />
        </g>
        <g
           inkscape:label="#g5962"
           transform="matrix(1.7480037,1.4146844,-1.4146844,1.7480037,209.03748,-1461.2114)"
           id="g4293">
          <path
             inkscape:connector-curvature="0"
             id="path4295"
             d="m 352.46016,479.41019 a 72.594956,116.30967 0 0 0 -3.01292,0.24115 l -30.6193,0 a 72.594956,116.30967 0 0 1 68.34313,116.06775 72.594956,116.30967 0 0 1 -69.9653,116.09936 l 31.5366,0 a 72.594956,116.30967 0 0 0 3.71779,0.21085 72.594956,116.30967 0 0 0 2.63201,-0.21085 l 1.7432,0 0,-0.13968 A 72.594956,116.30967 0 0 0 425.05391,595.71909 72.594956,116.30967 0 0 0 357.12136,479.67375 l 0,-0.0224 -0.40822,0 a 72.594956,116.30967 0 0 0 -4.25298,-0.24115 z m -42.55944,0.24115 0,0.1331 a 72.594956,116.30967 0 0 1 1.66725,-0.1331 l -1.66725,0 z m 0.30734,232.13021 0,0.0369 0.65029,0 a 72.594956,116.30967 0 0 1 -0.65029,-0.0369 z"
             style="color:#000000;clip-rule:nonzero;display:inline;overflow:visible;visibility:visible;opacity:1;isolation:auto;mix-blend-mode:normal;color-interpolation:sRGB;color-interpolation-filters:linearRGB;solid-color:#000000;solid-opacity:1;fill:url(#linearGradient4303);fill-opacity:1;fill-rule:nonzero;stroke:none;stroke-width:0.5;stroke-linecap:round;stroke-linejoin:bevel;stroke-miterlimit:4;stroke-dasharray:none;stroke-dashoffset:5;stroke-opacity:1;color-rendering:auto;image-rendering:auto;shape-rendering:auto;text-rendering:auto;enable-background:accumulate" />
          <path
             inkscape:connector-curvature="0"
             id="path4297"
             d="m 314.57614,502.90496 a 57.930324,92.814387 0 0 0 -57.68102,84.86921 72.594956,116.30967 0 0 0 -0.2492,7.94492 57.930324,92.814387 0 0 0 0.17681,5.65856 72.594956,116.30967 0 0 0 0.15189,4.02846 57.930324,92.814387 0 0 0 57.60152,83.12842 57.930324,92.814387 0 0 0 8.12385,-1.0305 72.594956,116.30967 0 0 1 -28.17123,-91.78494 72.594956,116.30967 0 0 1 28.07393,-91.81658 57.930324,92.814387 0 0 0 -8.02655,-0.99755 z"
             style="color:#000000;clip-rule:nonzero;display:inline;overflow:visible;visibility:visible;opacity:1;isolation:auto;mix-blend-mode:normal;color-interpolation:sRGB;color-interpolation-filters:linearRGB;solid-color:#000000;solid-opacity:1;fill:url(#linearGradient4305);fill-opacity:1;fill-rule:nonzero;stroke:none;stroke-width:0.5;stroke-linecap:round;stroke-linejoin:bevel;stroke-miterlimit:4;stroke-dasharray:none;stroke-dashoffset:5;stroke-opacity:1;color-rendering:auto;image-rendering:auto;shape-rendering:auto;text-rendering:auto;enable-background:accumulate" />
          <text
             xml:space="preserve"
             style="font-style:normal;font-variant:normal;font-weight:500;font-stretch:normal;font-size:81.22794342px;line-height:80.00000119%;font-family:KacstLetter;-inkscape-font-specification:'KacstLetter, Medium';text-align:start;letter-spacing:0px;word-spacing:0px;writing-mode:lr-tb;text-anchor:start;opacity:1;fill:#ffffff;fill-opacity:1;stroke:none;stroke-width:1px;stroke-linecap:butt;stroke-linejoin:miter;stroke-opacity:1"
             x="-421.09515"
             y="645.62488"
             id="text4309"
             sodipodi:linespacing="80.000001%"
             transform="matrix(0.48719117,-0.99278962,0.81177482,0.39836187,0,0)"><tspan
               sodipodi:role="line"
               id="tspan4311"
               x="-421.09515"
               y="645.62488"
               style="font-style:normal;font-variant:normal;font-weight:500;font-stretch:normal;font-size:81.22793579px;line-height:80.00000119%;font-family:KacstTitle;-inkscape-font-specification:'KacstTitle, Medium';text-align:start;writing-mode:lr-tb;text-anchor:start;fill:#ffffff">GIT</tspan></text>
          <path
             inkscape:connector-curvature="0"
             id="path4301"
             d="m 314.57614,479.41019 a 72.594956,116.30967 0 0 0 -72.59493,116.3089 72.594956,116.30967 0 0 0 72.59493,116.31021 72.594956,116.30967 0 0 0 72.59493,-116.31021 72.594956,116.30967 0 0 0 -72.59493,-116.3089 z m 0,23.49477 a 57.930324,92.814387 0 0 1 57.93022,92.81413 57.930324,92.814387 0 0 1 -57.93022,92.81544 57.930324,92.814387 0 0 1 -57.93022,-92.81544 57.930324,92.814387 0 0 1 57.93022,-92.81413 z"
             style="color:#000000;clip-rule:nonzero;display:inline;overflow:visible;visibility:visible;opacity:1;isolation:auto;mix-blend-mode:normal;color-interpolation:sRGB;color-interpolation-filters:linearRGB;solid-color:#000000;solid-opacity:1;fill:url(#linearGradient4307);fill-opacity:1;fill-rule:nonzero;stroke:none;stroke-width:0.5;stroke-linecap:round;stroke-linejoin:bevel;stroke-miterlimit:4;stroke-dasharray:none;stroke-dashoffset:5;stroke-opacity:1;color-rendering:auto;image-rendering:auto;shape-rendering:auto;text-rendering:auto;enable-background:accumulate" />
        </g>
      </g>
    </g>
  </g>
</svg>
